<?xml version="1.0" encoding="UTF-8"?>
<svg id="Camada_2" data-name="Camada 2" xmlns="http://www.w3.org/2000/svg" viewBox="0 0 344 344">
  <defs>
    <style>
      .cls-1 {
        fill: #fff;
      }

      .cls-2 {
        fill: #f4636e;
      }
    </style>
  </defs>
  <g id="Camada_1-2" data-name="Camada 1">
    <g>
      <path class="cls-2" d="M172,344h0C77.4,344,0,266.6,0,172h0C0,77.4,77.4,0,172,0h0c94.6,0,172,77.4,172,172h0c0,94.6-77.4,172-172,172Z"/>
      <g>
        <polygon class="cls-1" points="187.91 57.69 191.71 45.01 152.29 45.01 156.09 57.69 187.91 57.69"/>
        <path class="cls-1" d="M91.59,286.81c0,6.74,5.45,12.18,12.18,12.18h136.52c6.74,0,12.18-5.45,12.18-12.18v-13.26H91.59v13.26Z"/>
        <path class="cls-1" d="M240.3,45.01h-39.7l-5.45,18.13c-.5,1.79-2.15,3.01-4.08,3.01h-38.13c-1.86,0-3.51-1.22-4.09-3.01l-5.45-18.13h-39.7c-6.74,0-12.18,5.45-12.18,12.18v207.98h160.89V57.19c0-6.74-5.45-12.18-12.11-12.18ZM172,239.73c-37.34,0-67.73-30.39-67.73-67.73s30.39-67.73,67.73-67.73,67.73,30.39,67.73,67.73-30.39,67.73-67.73,67.73Z"/>
        <path class="cls-1" d="M172,112.73c-32.68,0-59.27,26.59-59.27,59.27s26.59,59.27,59.27,59.27,59.27-26.59,59.27-59.27-26.59-59.27-59.27-59.27ZM172,193.14c4.66,0,8.46-3.8,8.46-8.46,0-2.37,1.86-4.23,4.23-4.23s4.23,1.86,4.23,4.23c0,9.32-7.6,16.91-16.91,16.91s-16.91-7.6-16.91-16.91c0-2.37,1.86-4.23,4.23-4.23s4.23,1.86,4.23,4.23c0,4.66,3.8,8.46,8.46,8.46ZM167.77,180.46v-12.68c0-2.37,1.86-4.23,4.23-4.23s4.23,1.86,4.23,4.23v12.68c0,2.36-1.86,4.23-4.23,4.23s-4.23-1.86-4.23-4.23ZM184.69,163.54c-2.37,0-4.23-1.86-4.23-4.23,0-4.66-3.8-8.46-8.46-8.46s-8.46,3.8-8.46,8.46c0,2.36-1.86,4.23-4.23,4.23s-4.23-1.86-4.23-4.23c0-9.32,7.6-16.91,16.91-16.91s16.91,7.6,16.91,16.91c0,2.29-1.86,4.23-4.23,4.23ZM172,133.87c-13.98,0-25.37,11.4-25.37,25.37v25.37c0,13.98,11.39,25.37,25.37,25.37s25.37-11.4,25.37-25.37c0-2.36,1.86-4.23,4.23-4.23s4.23,1.86,4.23,4.23c0,18.71-15.19,33.9-33.9,33.9s-33.9-15.19-33.9-33.9v-25.37c0-18.7,15.19-33.9,33.9-33.9s33.9,15.19,33.9,33.9c0,2.36-1.86,4.23-4.23,4.23s-4.23-1.86-4.23-4.23c0-13.98-11.39-25.37-25.37-25.37Z"/>
      </g>
    </g>
  </g>
</svg>